<svg width="921" height="921" viewBox="0 0 921 921" fill="none" xmlns="http://www.w3.org/2000/svg">
<path d="M626.282 693.087C596.525 565.258 477.366 487.045 268.804 458.448C60.2425 429.851 -26.5519 327.245 8.42085 150.63C43.3936 -25.9853 147.828 -122.479 321.723 -138.852C495.618 -155.225 640.553 -207.181 756.528 -294.722C872.502 -382.262 991.379 -386.666 1113.16 -307.934C1234.94 -229.202 1331.74 -123.661 1403.57 8.6878C1475.4 141.037 1466.44 267.234 1376.71 387.28C1286.98 507.325 1212.91 630.789 1154.5 757.673C1096.09 884.556 1000.89 937.469 868.902 916.414C736.912 895.358 656.038 820.916 626.282 693.087Z" fill="#EEEDF6"/>
</svg>
